<mxfile host="app.diagrams.net" modified="2023-01-27T09:18:41.669Z" agent="5.0 (Windows NT 10.0; Win64; x64) AppleWebKit/537.36 (KHTML, like Gecko) Chrome/109.0.0.0 Safari/537.36" etag="XESKcephtfpuqWbR_O7I" version="20.8.13" type="github">
  <diagram id="C5RBs43oDa-KdzZeNtuy" name="Page-1">
    <mxGraphModel dx="1562" dy="837" grid="1" gridSize="10" guides="1" tooltips="1" connect="1" arrows="1" fold="1" page="1" pageScale="1" pageWidth="827" pageHeight="1169" math="0" shadow="0">
      <root>
        <mxCell id="WIyWlLk6GJQsqaUBKTNV-0" />
        <mxCell id="WIyWlLk6GJQsqaUBKTNV-1" parent="WIyWlLk6GJQsqaUBKTNV-0" />
        <mxCell id="WIyWlLk6GJQsqaUBKTNV-3" value="&lt;b&gt;&lt;u&gt;Incident management&amp;nbsp;&lt;/u&gt;&lt;/b&gt;" style="rounded=1;whiteSpace=wrap;html=1;fontSize=12;glass=0;strokeWidth=1;shadow=0;" parent="WIyWlLk6GJQsqaUBKTNV-1" vertex="1">
          <mxGeometry x="340" y="10" width="120" height="40" as="geometry" />
        </mxCell>
        <mxCell id="oT63mufHaQQu99G_dqiB-0" value="Problème de connexion&lt;br&gt;au service&amp;nbsp;" style="ellipse;shape=cloud;whiteSpace=wrap;html=1;" vertex="1" parent="WIyWlLk6GJQsqaUBKTNV-1">
          <mxGeometry x="340" y="60" width="120" height="80" as="geometry" />
        </mxCell>
        <mxCell id="oT63mufHaQQu99G_dqiB-1" value="" style="endArrow=classic;html=1;rounded=0;" edge="1" parent="WIyWlLk6GJQsqaUBKTNV-1">
          <mxGeometry width="50" height="50" relative="1" as="geometry">
            <mxPoint x="400" y="160" as="sourcePoint" />
            <mxPoint x="400" y="240" as="targetPoint" />
          </mxGeometry>
        </mxCell>
        <mxCell id="oT63mufHaQQu99G_dqiB-2" value="Service Desk" style="ellipse;whiteSpace=wrap;html=1;" vertex="1" parent="WIyWlLk6GJQsqaUBKTNV-1">
          <mxGeometry x="340" y="250" width="120" height="80" as="geometry" />
        </mxCell>
        <mxCell id="oT63mufHaQQu99G_dqiB-4" value="&lt;h1&gt;&lt;span style=&quot;background-color: initial;&quot;&gt;Analyse&lt;/span&gt;&lt;/h1&gt;&lt;h1&gt;&lt;span style=&quot;background-color: initial; font-size: 12px; font-weight: normal;&quot;&gt;à partir du &lt;/span&gt;&lt;span style=&quot;background-color: initial; font-size: 12px;&quot;&gt;service catalog&lt;/span&gt;&lt;span style=&quot;background-color: initial; font-size: 12px; font-weight: normal;&quot;&gt;&amp;nbsp; va voir quel utilisateur a accès au service&lt;/span&gt;&lt;br&gt;&lt;/h1&gt;" style="text;html=1;strokeColor=none;fillColor=none;spacing=5;spacingTop=-20;whiteSpace=wrap;overflow=hidden;rounded=0;align=center;" vertex="1" parent="WIyWlLk6GJQsqaUBKTNV-1">
          <mxGeometry x="150" y="200" width="190" height="140" as="geometry" />
        </mxCell>
        <mxCell id="oT63mufHaQQu99G_dqiB-5" value="Service request" style="strokeWidth=2;html=1;shape=mxgraph.flowchart.decision;whiteSpace=wrap;" vertex="1" parent="WIyWlLk6GJQsqaUBKTNV-1">
          <mxGeometry x="350" y="350" width="100" height="100" as="geometry" />
        </mxCell>
        <mxCell id="oT63mufHaQQu99G_dqiB-7" value="" style="endArrow=none;dashed=1;html=1;rounded=0;entryX=0;entryY=0.5;entryDx=0;entryDy=0;entryPerimeter=0;" edge="1" parent="WIyWlLk6GJQsqaUBKTNV-1" target="oT63mufHaQQu99G_dqiB-5">
          <mxGeometry width="50" height="50" relative="1" as="geometry">
            <mxPoint x="270" y="460" as="sourcePoint" />
            <mxPoint x="300" y="399" as="targetPoint" />
            <Array as="points">
              <mxPoint x="270" y="399" />
            </Array>
          </mxGeometry>
        </mxCell>
        <mxCell id="oT63mufHaQQu99G_dqiB-10" value="" style="endArrow=none;dashed=1;html=1;rounded=0;exitX=1;exitY=0.5;exitDx=0;exitDy=0;exitPerimeter=0;" edge="1" parent="WIyWlLk6GJQsqaUBKTNV-1" source="oT63mufHaQQu99G_dqiB-5">
          <mxGeometry width="50" height="50" relative="1" as="geometry">
            <mxPoint x="480" y="399.5" as="sourcePoint" />
            <mxPoint x="530" y="460" as="targetPoint" />
            <Array as="points">
              <mxPoint x="530" y="400" />
            </Array>
          </mxGeometry>
        </mxCell>
        <mxCell id="oT63mufHaQQu99G_dqiB-11" value="Non" style="text;html=1;strokeColor=none;fillColor=none;align=center;verticalAlign=middle;whiteSpace=wrap;rounded=0;" vertex="1" parent="WIyWlLk6GJQsqaUBKTNV-1">
          <mxGeometry x="460" y="370" width="60" height="30" as="geometry" />
        </mxCell>
        <mxCell id="oT63mufHaQQu99G_dqiB-12" value="Oui" style="text;html=1;align=center;verticalAlign=middle;resizable=0;points=[];autosize=1;strokeColor=none;fillColor=none;" vertex="1" parent="WIyWlLk6GJQsqaUBKTNV-1">
          <mxGeometry x="290" y="370" width="40" height="30" as="geometry" />
        </mxCell>
        <mxCell id="oT63mufHaQQu99G_dqiB-19" value="" style="edgeStyle=orthogonalEdgeStyle;rounded=0;orthogonalLoop=1;jettySize=auto;html=1;" edge="1" parent="WIyWlLk6GJQsqaUBKTNV-1" source="oT63mufHaQQu99G_dqiB-13" target="oT63mufHaQQu99G_dqiB-18">
          <mxGeometry relative="1" as="geometry" />
        </mxCell>
        <mxCell id="oT63mufHaQQu99G_dqiB-13" value="Incident ticket" style="rounded=0;whiteSpace=wrap;html=1;" vertex="1" parent="WIyWlLk6GJQsqaUBKTNV-1">
          <mxGeometry x="470" y="460" width="120" height="60" as="geometry" />
        </mxCell>
        <mxCell id="oT63mufHaQQu99G_dqiB-14" value="Request complaint&amp;nbsp;" style="rounded=0;whiteSpace=wrap;html=1;" vertex="1" parent="WIyWlLk6GJQsqaUBKTNV-1">
          <mxGeometry x="220" y="460" width="120" height="60" as="geometry" />
        </mxCell>
        <mxCell id="oT63mufHaQQu99G_dqiB-17" value="&lt;h1&gt;Authorisation au service&amp;nbsp;&lt;/h1&gt;&lt;div&gt;Réstaure la connexion à l&#39;utilisateur&lt;/div&gt;" style="text;html=1;strokeColor=none;fillColor=none;spacing=5;spacingTop=-20;whiteSpace=wrap;overflow=hidden;rounded=0;align=center;" vertex="1" parent="WIyWlLk6GJQsqaUBKTNV-1">
          <mxGeometry x="40" y="420" width="190" height="120" as="geometry" />
        </mxCell>
        <mxCell id="oT63mufHaQQu99G_dqiB-22" value="" style="edgeStyle=orthogonalEdgeStyle;rounded=0;orthogonalLoop=1;jettySize=auto;html=1;" edge="1" parent="WIyWlLk6GJQsqaUBKTNV-1" source="oT63mufHaQQu99G_dqiB-18" target="oT63mufHaQQu99G_dqiB-21">
          <mxGeometry relative="1" as="geometry" />
        </mxCell>
        <mxCell id="oT63mufHaQQu99G_dqiB-18" value="Catégorize" style="whiteSpace=wrap;html=1;rounded=0;" vertex="1" parent="WIyWlLk6GJQsqaUBKTNV-1">
          <mxGeometry x="470" y="600" width="120" height="60" as="geometry" />
        </mxCell>
        <mxCell id="oT63mufHaQQu99G_dqiB-20" value="Analyse l&#39;urgence de l&#39;incident" style="text;html=1;align=center;verticalAlign=middle;resizable=0;points=[];autosize=1;strokeColor=none;fillColor=none;" vertex="1" parent="WIyWlLk6GJQsqaUBKTNV-1">
          <mxGeometry x="600" y="615" width="180" height="30" as="geometry" />
        </mxCell>
        <mxCell id="oT63mufHaQQu99G_dqiB-26" value="" style="edgeStyle=orthogonalEdgeStyle;rounded=0;orthogonalLoop=1;jettySize=auto;html=1;" edge="1" parent="WIyWlLk6GJQsqaUBKTNV-1" source="oT63mufHaQQu99G_dqiB-21" target="oT63mufHaQQu99G_dqiB-25">
          <mxGeometry relative="1" as="geometry" />
        </mxCell>
        <mxCell id="oT63mufHaQQu99G_dqiB-21" value="Prioritize" style="whiteSpace=wrap;html=1;rounded=0;" vertex="1" parent="WIyWlLk6GJQsqaUBKTNV-1">
          <mxGeometry x="470" y="710" width="120" height="60" as="geometry" />
        </mxCell>
        <mxCell id="oT63mufHaQQu99G_dqiB-28" style="edgeStyle=orthogonalEdgeStyle;rounded=0;orthogonalLoop=1;jettySize=auto;html=1;exitX=0;exitY=1;exitDx=0;exitDy=0;" edge="1" parent="WIyWlLk6GJQsqaUBKTNV-1" source="oT63mufHaQQu99G_dqiB-25">
          <mxGeometry relative="1" as="geometry">
            <mxPoint x="440" y="950" as="targetPoint" />
          </mxGeometry>
        </mxCell>
        <mxCell id="oT63mufHaQQu99G_dqiB-29" style="edgeStyle=orthogonalEdgeStyle;rounded=0;orthogonalLoop=1;jettySize=auto;html=1;exitX=1;exitY=1;exitDx=0;exitDy=0;" edge="1" parent="WIyWlLk6GJQsqaUBKTNV-1" source="oT63mufHaQQu99G_dqiB-25">
          <mxGeometry relative="1" as="geometry">
            <mxPoint x="630" y="950" as="targetPoint" />
          </mxGeometry>
        </mxCell>
        <mxCell id="oT63mufHaQQu99G_dqiB-25" value="Major &lt;br&gt;Incident" style="rhombus;whiteSpace=wrap;html=1;rounded=0;" vertex="1" parent="WIyWlLk6GJQsqaUBKTNV-1">
          <mxGeometry x="490" y="840" width="80" height="80" as="geometry" />
        </mxCell>
        <mxCell id="oT63mufHaQQu99G_dqiB-30" value="Oui" style="text;html=1;align=center;verticalAlign=middle;resizable=0;points=[];autosize=1;strokeColor=none;fillColor=none;" vertex="1" parent="WIyWlLk6GJQsqaUBKTNV-1">
          <mxGeometry x="440" y="865" width="40" height="30" as="geometry" />
        </mxCell>
        <mxCell id="oT63mufHaQQu99G_dqiB-31" value="Non" style="text;html=1;align=center;verticalAlign=middle;resizable=0;points=[];autosize=1;strokeColor=none;fillColor=none;" vertex="1" parent="WIyWlLk6GJQsqaUBKTNV-1">
          <mxGeometry x="585" y="865" width="50" height="30" as="geometry" />
        </mxCell>
        <mxCell id="oT63mufHaQQu99G_dqiB-32" value="major incident management" style="rounded=0;whiteSpace=wrap;html=1;" vertex="1" parent="WIyWlLk6GJQsqaUBKTNV-1">
          <mxGeometry x="380" y="950" width="120" height="60" as="geometry" />
        </mxCell>
        <mxCell id="oT63mufHaQQu99G_dqiB-35" value="" style="edgeStyle=orthogonalEdgeStyle;rounded=0;orthogonalLoop=1;jettySize=auto;html=1;" edge="1" parent="WIyWlLk6GJQsqaUBKTNV-1" source="oT63mufHaQQu99G_dqiB-33" target="oT63mufHaQQu99G_dqiB-34">
          <mxGeometry relative="1" as="geometry" />
        </mxCell>
        <mxCell id="oT63mufHaQQu99G_dqiB-33" value="Diagnostics&lt;br&gt;&amp;amp;&lt;br&gt;Troubleshooting" style="rounded=0;whiteSpace=wrap;html=1;" vertex="1" parent="WIyWlLk6GJQsqaUBKTNV-1">
          <mxGeometry x="570" y="950" width="120" height="60" as="geometry" />
        </mxCell>
        <mxCell id="oT63mufHaQQu99G_dqiB-38" value="" style="edgeStyle=orthogonalEdgeStyle;rounded=0;orthogonalLoop=1;jettySize=auto;html=1;fontColor=#000000;" edge="1" parent="WIyWlLk6GJQsqaUBKTNV-1" source="oT63mufHaQQu99G_dqiB-34" target="oT63mufHaQQu99G_dqiB-36">
          <mxGeometry relative="1" as="geometry" />
        </mxCell>
        <mxCell id="oT63mufHaQQu99G_dqiB-34" value="restore" style="rounded=0;whiteSpace=wrap;html=1;" vertex="1" parent="WIyWlLk6GJQsqaUBKTNV-1">
          <mxGeometry x="570" y="1090" width="120" height="60" as="geometry" />
        </mxCell>
        <mxCell id="oT63mufHaQQu99G_dqiB-39" value="" style="edgeStyle=orthogonalEdgeStyle;rounded=0;orthogonalLoop=1;jettySize=auto;html=1;fontColor=#000000;" edge="1" parent="WIyWlLk6GJQsqaUBKTNV-1" source="oT63mufHaQQu99G_dqiB-36" target="oT63mufHaQQu99G_dqiB-37">
          <mxGeometry relative="1" as="geometry" />
        </mxCell>
        <mxCell id="oT63mufHaQQu99G_dqiB-36" value="Resolve" style="whiteSpace=wrap;html=1;rounded=0;" vertex="1" parent="WIyWlLk6GJQsqaUBKTNV-1">
          <mxGeometry x="410" y="1090" width="120" height="60" as="geometry" />
        </mxCell>
        <mxCell id="oT63mufHaQQu99G_dqiB-37" value="&lt;span style=&quot;background-color: rgb(255, 255, 255);&quot;&gt;Closed&lt;/span&gt;" style="rounded=1;whiteSpace=wrap;html=1;strokeWidth=2;fillWeight=4;hachureGap=8;hachureAngle=45;fillColor=#1ba1e2;sketch=1;" vertex="1" parent="WIyWlLk6GJQsqaUBKTNV-1">
          <mxGeometry x="240" y="1090" width="120" height="60" as="geometry" />
        </mxCell>
      </root>
    </mxGraphModel>
  </diagram>
</mxfile>
